<?xml version="1.0" encoding="utf-8" standalone="no"?>
<!DOCTYPE svg PUBLIC "-//W3C//DTD SVG 1.1//EN"
  "http://www.w3.org/Graphics/SVG/1.1/DTD/svg11.dtd">
<svg xmlns:xlink="http://www.w3.org/1999/xlink" width="360pt" height="288pt" viewBox="0 0 360 288" xmlns="http://www.w3.org/2000/svg" version="1.1">
 <metadata>
  <rdf:RDF xmlns:dc="http://purl.org/dc/elements/1.1/" xmlns:cc="http://creativecommons.org/ns#" xmlns:rdf="http://www.w3.org/1999/02/22-rdf-syntax-ns#">
   <cc:Work>
    <dc:type rdf:resource="http://purl.org/dc/dcmitype/StillImage"/>
    <dc:date>1980-01-01T00:00:00+00:00</dc:date>
    <dc:format>image/svg+xml</dc:format>
    <dc:creator>
     <cc:Agent>
      <dc:title>Matplotlib v3.10.5, https://matplotlib.org/</dc:title>
     </cc:Agent>
    </dc:creator>
   </cc:Work>
  </rdf:RDF>
 </metadata>
 <defs>
  <style type="text/css">*{stroke-linejoin: round; stroke-linecap: butt}</style>
 </defs>
 <g id="figure_1">
  <g id="patch_1">
   <path d="M 0 288 
L 360 288 
L 360 0 
L 0 0 
z
" style="fill: #ffffff"/>
  </g>
  <g id="axes_1">
   <g id="patch_2">
    <path d="M 45 256.32 
L 324 256.32 
L 324 34.56 
L 45 34.56 
z
" style="fill: #ffffff"/>
   </g>
   <g id="PathCollection_1">
    <defs>
     <path id="mc3668de07c" d="M 0 3 
C 0.795609 3 1.55874 2.683901 2.12132 2.12132 
C 2.683901 1.55874 3 0.795609 3 0 
C 3 -0.795609 2.683901 -1.55874 2.12132 -2.12132 
C 1.55874 -2.683901 0.795609 -3 0 -3 
C -0.795609 -3 -1.55874 -2.683901 -2.12132 -2.12132 
C -2.683901 -1.55874 -3 -0.795609 -3 0 
C -3 0.795609 -2.683901 1.55874 -2.12132 2.12132 
C -1.55874 2.683901 -0.795609 3 0 3 
z
" style="stroke: #0000ff"/>
    </defs>
    <g clip-path="url(#p059dc8944c)">
     <use xlink:href="#mc3668de07c" x="212.681818" y="218.304" style="fill: #0000ff; stroke: #0000ff"/>
     <use xlink:href="#mc3668de07c" x="240.863636" y="211.968" style="fill: #0000ff; stroke: #0000ff"/>
     <use xlink:href="#mc3668de07c" x="269.045455" y="186.624" style="fill: #0000ff; stroke: #0000ff"/>
     <use xlink:href="#mc3668de07c" x="297.227273" y="72.576" style="fill: #0000ff; stroke: #0000ff"/>
    </g>
   </g>
   <g id="matplotlib.axis_1">
    <g id="xtick_1">
     <g id="line2d_1">
      <path d="M 71.772727 256.32 
L 71.772727 34.56 
" clip-path="url(#p059dc8944c)" style="fill: none; stroke: #b0b0b0; stroke-width: 0.8; stroke-linecap: square"/>
     </g>
     <g id="line2d_2">
      <defs>
       <path id="mab84bdaed5" d="M 0 0 
L 0 3.5 
" style="stroke: #000000; stroke-width: 0.8"/>
      </defs>
      <g>
       <use xlink:href="#mab84bdaed5" x="71.772727" y="256.32" style="stroke: #000000; stroke-width: 0.8"/>
      </g>
     </g>
     <g id="text_1">
      <!-- −4 -->
      <g transform="translate(64.401634 270.918437) scale(0.1 -0.1)">
       <defs>
        <path id="DejaVuSans-2212" d="M 678 2272 
L 4684 2272 
L 4684 1741 
L 678 1741 
L 678 2272 
z
" transform="scale(0.015625)"/>
        <path id="DejaVuSans-34" d="M 2419 4116 
L 825 1625 
L 2419 1625 
L 2419 4116 
z
M 2253 4666 
L 3047 4666 
L 3047 1625 
L 3713 1625 
L 3713 1100 
L 3047 1100 
L 3047 0 
L 2419 0 
L 2419 1100 
L 313 1100 
L 313 1709 
L 2253 4666 
z
" transform="scale(0.015625)"/>
       </defs>
       <use xlink:href="#DejaVuSans-2212"/>
       <use xlink:href="#DejaVuSans-34" transform="translate(83.789062 0)"/>
      </g>
     </g>
    </g>
    <g id="xtick_2">
     <g id="line2d_3">
      <path d="M 128.136364 256.32 
L 128.136364 34.56 
" clip-path="url(#p059dc8944c)" style="fill: none; stroke: #b0b0b0; stroke-width: 0.8; stroke-linecap: square"/>
     </g>
     <g id="line2d_4">
      <g>
       <use xlink:href="#mab84bdaed5" x="128.136364" y="256.32" style="stroke: #000000; stroke-width: 0.8"/>
      </g>
     </g>
     <g id="text_2">
      <!-- −2 -->
      <g transform="translate(120.76527 270.918437) scale(0.1 -0.1)">
       <defs>
        <path id="DejaVuSans-32" d="M 1228 531 
L 3431 531 
L 3431 0 
L 469 0 
L 469 531 
Q 828 903 1448 1529 
Q 2069 2156 2228 2338 
Q 2531 2678 2651 2914 
Q 2772 3150 2772 3378 
Q 2772 3750 2511 3984 
Q 2250 4219 1831 4219 
Q 1534 4219 1204 4116 
Q 875 4013 500 3803 
L 500 4441 
Q 881 4594 1212 4672 
Q 1544 4750 1819 4750 
Q 2544 4750 2975 4387 
Q 3406 4025 3406 3419 
Q 3406 3131 3298 2873 
Q 3191 2616 2906 2266 
Q 2828 2175 2409 1742 
Q 1991 1309 1228 531 
z
" transform="scale(0.015625)"/>
       </defs>
       <use xlink:href="#DejaVuSans-2212"/>
       <use xlink:href="#DejaVuSans-32" transform="translate(83.789062 0)"/>
      </g>
     </g>
    </g>
    <g id="xtick_3">
     <g id="line2d_5">
      <path d="M 184.5 256.32 
L 184.5 34.56 
" clip-path="url(#p059dc8944c)" style="fill: none; stroke: #b0b0b0; stroke-width: 0.8; stroke-linecap: square"/>
     </g>
     <g id="line2d_6">
      <g>
       <use xlink:href="#mab84bdaed5" x="184.5" y="256.32" style="stroke: #000000; stroke-width: 0.8"/>
      </g>
     </g>
     <g id="text_3">
      <!-- 0 -->
      <g transform="translate(181.31875 270.918437) scale(0.1 -0.1)">
       <defs>
        <path id="DejaVuSans-30" d="M 2034 4250 
Q 1547 4250 1301 3770 
Q 1056 3291 1056 2328 
Q 1056 1369 1301 889 
Q 1547 409 2034 409 
Q 2525 409 2770 889 
Q 3016 1369 3016 2328 
Q 3016 3291 2770 3770 
Q 2525 4250 2034 4250 
z
M 2034 4750 
Q 2819 4750 3233 4129 
Q 3647 3509 3647 2328 
Q 3647 1150 3233 529 
Q 2819 -91 2034 -91 
Q 1250 -91 836 529 
Q 422 1150 422 2328 
Q 422 3509 836 4129 
Q 1250 4750 2034 4750 
z
" transform="scale(0.015625)"/>
       </defs>
       <use xlink:href="#DejaVuSans-30"/>
      </g>
     </g>
    </g>
    <g id="xtick_4">
     <g id="line2d_7">
      <path d="M 240.863636 256.32 
L 240.863636 34.56 
" clip-path="url(#p059dc8944c)" style="fill: none; stroke: #b0b0b0; stroke-width: 0.8; stroke-linecap: square"/>
     </g>
     <g id="line2d_8">
      <g>
       <use xlink:href="#mab84bdaed5" x="240.863636" y="256.32" style="stroke: #000000; stroke-width: 0.8"/>
      </g>
     </g>
     <g id="text_4">
      <!-- 2 -->
      <g transform="translate(237.682386 270.918437) scale(0.1 -0.1)">
       <use xlink:href="#DejaVuSans-32"/>
      </g>
     </g>
    </g>
    <g id="xtick_5">
     <g id="line2d_9">
      <path d="M 297.227273 256.32 
L 297.227273 34.56 
" clip-path="url(#p059dc8944c)" style="fill: none; stroke: #b0b0b0; stroke-width: 0.8; stroke-linecap: square"/>
     </g>
     <g id="line2d_10">
      <g>
       <use xlink:href="#mab84bdaed5" x="297.227273" y="256.32" style="stroke: #000000; stroke-width: 0.8"/>
      </g>
     </g>
     <g id="text_5">
      <!-- 4 -->
      <g transform="translate(294.046023 270.918437) scale(0.1 -0.1)">
       <use xlink:href="#DejaVuSans-34"/>
      </g>
     </g>
    </g>
   </g>
   <g id="matplotlib.axis_2">
    <g id="ytick_1">
     <g id="line2d_11">
      <path d="M 45 256.32 
L 324 256.32 
" clip-path="url(#p059dc8944c)" style="fill: none; stroke: #b0b0b0; stroke-width: 0.8; stroke-linecap: square"/>
     </g>
     <g id="line2d_12">
      <defs>
       <path id="meaf5ea87d4" d="M 0 0 
L -3.5 0 
" style="stroke: #000000; stroke-width: 0.8"/>
      </defs>
      <g>
       <use xlink:href="#meaf5ea87d4" x="45" y="256.32" style="stroke: #000000; stroke-width: 0.8"/>
      </g>
     </g>
     <g id="text_6">
      <!-- −5 -->
      <g transform="translate(23.257812 260.119219) scale(0.1 -0.1)">
       <defs>
        <path id="DejaVuSans-35" d="M 691 4666 
L 3169 4666 
L 3169 4134 
L 1269 4134 
L 1269 2991 
Q 1406 3038 1543 3061 
Q 1681 3084 1819 3084 
Q 2600 3084 3056 2656 
Q 3513 2228 3513 1497 
Q 3513 744 3044 326 
Q 2575 -91 1722 -91 
Q 1428 -91 1123 -41 
Q 819 9 494 109 
L 494 744 
Q 775 591 1075 516 
Q 1375 441 1709 441 
Q 2250 441 2565 725 
Q 2881 1009 2881 1497 
Q 2881 1984 2565 2268 
Q 2250 2553 1709 2553 
Q 1456 2553 1204 2497 
Q 953 2441 691 2322 
L 691 4666 
z
" transform="scale(0.015625)"/>
       </defs>
       <use xlink:href="#DejaVuSans-2212"/>
       <use xlink:href="#DejaVuSans-35" transform="translate(83.789062 0)"/>
      </g>
     </g>
    </g>
    <g id="ytick_2">
     <g id="line2d_13">
      <path d="M 45 224.64 
L 324 224.64 
" clip-path="url(#p059dc8944c)" style="fill: none; stroke: #b0b0b0; stroke-width: 0.8; stroke-linecap: square"/>
     </g>
     <g id="line2d_14">
      <g>
       <use xlink:href="#meaf5ea87d4" x="45" y="224.64" style="stroke: #000000; stroke-width: 0.8"/>
      </g>
     </g>
     <g id="text_7">
      <!-- 0 -->
      <g transform="translate(31.6375 228.439219) scale(0.1 -0.1)">
       <use xlink:href="#DejaVuSans-30"/>
      </g>
     </g>
    </g>
    <g id="ytick_3">
     <g id="line2d_15">
      <path d="M 45 192.96 
L 324 192.96 
" clip-path="url(#p059dc8944c)" style="fill: none; stroke: #b0b0b0; stroke-width: 0.8; stroke-linecap: square"/>
     </g>
     <g id="line2d_16">
      <g>
       <use xlink:href="#meaf5ea87d4" x="45" y="192.96" style="stroke: #000000; stroke-width: 0.8"/>
      </g>
     </g>
     <g id="text_8">
      <!-- 5 -->
      <g transform="translate(31.6375 196.759219) scale(0.1 -0.1)">
       <use xlink:href="#DejaVuSans-35"/>
      </g>
     </g>
    </g>
    <g id="ytick_4">
     <g id="line2d_17">
      <path d="M 45 161.28 
L 324 161.28 
" clip-path="url(#p059dc8944c)" style="fill: none; stroke: #b0b0b0; stroke-width: 0.8; stroke-linecap: square"/>
     </g>
     <g id="line2d_18">
      <g>
       <use xlink:href="#meaf5ea87d4" x="45" y="161.28" style="stroke: #000000; stroke-width: 0.8"/>
      </g>
     </g>
     <g id="text_9">
      <!-- 10 -->
      <g transform="translate(25.275 165.079219) scale(0.1 -0.1)">
       <defs>
        <path id="DejaVuSans-31" d="M 794 531 
L 1825 531 
L 1825 4091 
L 703 3866 
L 703 4441 
L 1819 4666 
L 2450 4666 
L 2450 531 
L 3481 531 
L 3481 0 
L 794 0 
L 794 531 
z
" transform="scale(0.015625)"/>
       </defs>
       <use xlink:href="#DejaVuSans-31"/>
       <use xlink:href="#DejaVuSans-30" transform="translate(63.623047 0)"/>
      </g>
     </g>
    </g>
    <g id="ytick_5">
     <g id="line2d_19">
      <path d="M 45 129.6 
L 324 129.6 
" clip-path="url(#p059dc8944c)" style="fill: none; stroke: #b0b0b0; stroke-width: 0.8; stroke-linecap: square"/>
     </g>
     <g id="line2d_20">
      <g>
       <use xlink:href="#meaf5ea87d4" x="45" y="129.6" style="stroke: #000000; stroke-width: 0.8"/>
      </g>
     </g>
     <g id="text_10">
      <!-- 15 -->
      <g transform="translate(25.275 133.399219) scale(0.1 -0.1)">
       <use xlink:href="#DejaVuSans-31"/>
       <use xlink:href="#DejaVuSans-35" transform="translate(63.623047 0)"/>
      </g>
     </g>
    </g>
    <g id="ytick_6">
     <g id="line2d_21">
      <path d="M 45 97.92 
L 324 97.92 
" clip-path="url(#p059dc8944c)" style="fill: none; stroke: #b0b0b0; stroke-width: 0.8; stroke-linecap: square"/>
     </g>
     <g id="line2d_22">
      <g>
       <use xlink:href="#meaf5ea87d4" x="45" y="97.92" style="stroke: #000000; stroke-width: 0.8"/>
      </g>
     </g>
     <g id="text_11">
      <!-- 20 -->
      <g transform="translate(25.275 101.719219) scale(0.1 -0.1)">
       <use xlink:href="#DejaVuSans-32"/>
       <use xlink:href="#DejaVuSans-30" transform="translate(63.623047 0)"/>
      </g>
     </g>
    </g>
    <g id="ytick_7">
     <g id="line2d_23">
      <path d="M 45 66.24 
L 324 66.24 
" clip-path="url(#p059dc8944c)" style="fill: none; stroke: #b0b0b0; stroke-width: 0.8; stroke-linecap: square"/>
     </g>
     <g id="line2d_24">
      <g>
       <use xlink:href="#meaf5ea87d4" x="45" y="66.24" style="stroke: #000000; stroke-width: 0.8"/>
      </g>
     </g>
     <g id="text_12">
      <!-- 25 -->
      <g transform="translate(25.275 70.039219) scale(0.1 -0.1)">
       <use xlink:href="#DejaVuSans-32"/>
       <use xlink:href="#DejaVuSans-35" transform="translate(63.623047 0)"/>
      </g>
     </g>
    </g>
    <g id="ytick_8">
     <g id="line2d_25">
      <path d="M 45 34.56 
L 324 34.56 
" clip-path="url(#p059dc8944c)" style="fill: none; stroke: #b0b0b0; stroke-width: 0.8; stroke-linecap: square"/>
     </g>
     <g id="line2d_26">
      <g>
       <use xlink:href="#meaf5ea87d4" x="45" y="34.56" style="stroke: #000000; stroke-width: 0.8"/>
      </g>
     </g>
     <g id="text_13">
      <!-- 30 -->
      <g transform="translate(25.275 38.359219) scale(0.1 -0.1)">
       <defs>
        <path id="DejaVuSans-33" d="M 2597 2516 
Q 3050 2419 3304 2112 
Q 3559 1806 3559 1356 
Q 3559 666 3084 287 
Q 2609 -91 1734 -91 
Q 1441 -91 1130 -33 
Q 819 25 488 141 
L 488 750 
Q 750 597 1062 519 
Q 1375 441 1716 441 
Q 2309 441 2620 675 
Q 2931 909 2931 1356 
Q 2931 1769 2642 2001 
Q 2353 2234 1838 2234 
L 1294 2234 
L 1294 2753 
L 1863 2753 
Q 2328 2753 2575 2939 
Q 2822 3125 2822 3475 
Q 2822 3834 2567 4026 
Q 2313 4219 1838 4219 
Q 1578 4219 1281 4162 
Q 984 4106 628 3988 
L 628 4550 
Q 988 4650 1302 4700 
Q 1616 4750 1894 4750 
Q 2613 4750 3031 4423 
Q 3450 4097 3450 3541 
Q 3450 3153 3228 2886 
Q 3006 2619 2597 2516 
z
" transform="scale(0.015625)"/>
       </defs>
       <use xlink:href="#DejaVuSans-33"/>
       <use xlink:href="#DejaVuSans-30" transform="translate(63.623047 0)"/>
      </g>
     </g>
    </g>
   </g>
   <g id="line2d_27">
    <path d="M 57.681818 222.928721 
L 60.446731 222.5844 
L 62.552123 222.108679 
L 64.150192 221.527102 
L 65.393135 220.842471 
L 66.382416 220.048879 
L 67.219499 219.088618 
L 67.929752 217.928645 
L 68.563906 216.442451 
L 69.121962 214.530068 
L 69.603919 212.070838 
L 70.035144 208.698154 
L 70.415637 203.925707 
L 70.745397 196.912884 
L 71.024425 186.133746 
L 71.252721 168.692526 
L 71.430284 139.0325 
L 71.582481 69.521427 
L 71.640514 -1 
M 72.245315 289 
L 72.546396 264.500823 
L 72.901522 252.431749 
L 73.307381 245.49769 
L 73.789338 240.910222 
L 74.322028 237.880746 
L 74.90545 235.768746 
L 75.56497 234.190535 
L 76.300589 233.003184 
L 77.112307 232.107723 
L 78.050855 231.404825 
L 79.141601 230.870787 
L 80.435275 230.493304 
L 81.93188 230.29322 
L 83.606047 230.295279 
L 85.356313 230.520794 
L 87.005114 230.952501 
L 88.501718 231.568807 
L 89.820759 232.347697 
L 90.987603 233.29267 
L 92.027616 234.422361 
L 92.966165 235.776312 
L 93.828615 237.428567 
L 94.614966 239.440125 
L 95.325219 241.882072 
L 95.984739 244.96965 
L 96.593528 248.933809 
L 97.151583 254.12016 
L 97.658907 261.064451 
L 98.115498 270.633165 
L 98.521357 284.30215 
L 98.622243 289 
M 100.35591 -1 
L 100.626749 88.75547 
L 100.956509 132.394524 
L 101.362368 157.990788 
L 101.818959 173.415541 
L 102.326283 183.537108 
L 102.884338 190.568651 
L 103.518493 195.826554 
L 104.203379 199.678101 
L 104.938998 202.567389 
L 105.72535 204.766916 
L 106.537067 206.407762 
L 107.399517 207.67263 
L 108.312699 208.629255 
L 109.276614 209.322726 
L 110.291261 209.78081 
L 111.35664 210.016658 
L 112.447386 210.031653 
L 113.563497 209.824974 
L 114.679609 209.391311 
L 115.770354 208.72907 
L 116.835734 207.818665 
L 117.85038 206.656586 
L 118.814295 205.214805 
L 119.752843 203.396849 
L 120.64066 201.170349 
L 121.477743 198.44617 
L 122.264095 195.10343 
L 122.999714 190.97716 
L 123.6846 185.839451 
L 124.318755 179.370142 
L 124.902177 171.110233 
L 125.434866 160.385847 
L 125.916824 146.180459 
L 126.348048 126.913452 
L 126.728541 100.044549 
L 127.058301 61.350226 
L 127.353264 -1 
M 131.078027 289 
L 131.700311 278.623067 
L 132.385198 270.800415 
L 133.120817 264.88129 
L 133.907168 260.316748 
L 134.718886 256.845911 
L 135.581335 254.092361 
L 136.469151 251.965361 
L 137.382334 250.324143 
L 138.320882 249.075639 
L 139.284797 248.158687 
L 140.248711 247.547494 
L 141.18726 247.207689 
L 142.125808 247.098885 
L 143.064356 247.21375 
L 144.002905 247.557191 
L 144.941453 248.147016 
L 145.854635 248.988893 
L 146.767818 250.14463 
L 147.655634 251.640768 
L 148.518084 253.546742 
L 149.355167 255.965345 
L 150.141519 258.93965 
L 150.902504 262.739443 
L 151.612757 267.48631 
L 152.272277 273.470429 
L 152.881065 281.110439 
L 153.340584 289 
M 157.097626 -1 
L 157.446977 69.868647 
L 157.852835 111.620083 
L 158.334793 139.331525 
L 158.867482 157.730443 
L 159.450904 170.66564 
L 160.085059 180.146569 
L 160.795311 187.542572 
L 161.556297 193.208809 
L 162.368014 197.651387 
L 163.25583 201.290657 
L 164.194379 204.217904 
L 165.209025 206.660292 
L 166.299771 208.705699 
L 167.466615 210.42506 
L 168.734923 211.901763 
L 170.130063 213.186471 
L 171.6774 214.310507 
L 173.427665 215.306427 
L 175.431593 216.188252 
L 177.765281 216.966989 
L 180.504828 217.640284 
L 183.751698 218.202362 
L 187.607356 218.637943 
L 192.173267 218.924376 
L 197.449431 219.028806 
L 203.283651 218.920362 
L 209.346166 218.585271 
L 215.231119 218.039915 
L 220.735578 217.310123 
L 225.783447 216.420157 
L 230.374724 215.38903 
L 234.585509 214.217982 
L 238.441167 212.917041 
L 241.992431 211.486719 
L 245.290034 209.921467 
L 248.384707 208.207449 
L 251.301817 206.337221 
L 254.066729 204.299116 
L 256.704811 202.075746 
L 259.216063 199.668096 
L 261.651215 197.022454 
L 264.010269 194.125944 
L 266.293225 190.966842 
L 268.525448 187.493192 
L 270.706939 183.681752 
L 272.837697 179.508864 
L 274.94309 174.891906 
L 277.023116 169.786418 
L 279.077776 164.143996 
L 281.10707 157.91203 
L 283.110997 151.033435 
L 285.114925 143.343564 
L 287.093487 134.854344 
L 289.072048 125.361094 
L 291.025243 114.880073 
L 292.978439 103.156892 
L 294.906268 90.213783 
L 296.834097 75.73469 
L 298.761926 59.524597 
L 300.664389 41.615063 
L 302.566852 21.563571 
L 304.469315 -0.902948 
L 304.477076 -1 
L 304.477076 -1 
" clip-path="url(#p059dc8944c)" style="fill: none; stroke: #0000ff; stroke-opacity: 0.4; stroke-width: 1.5; stroke-linecap: square"/>
   </g>
   <g id="line2d_28">
    <path d="M 57.681818 225.020284 
L 62.780419 225.241931 
L 65.545332 225.564443 
L 67.194133 225.965382 
L 68.259512 226.437819 
L 69.020498 227.008039 
L 69.603919 227.722976 
L 70.060511 228.627837 
L 70.466369 229.968727 
L 70.79613 231.884212 
L 71.075158 234.924972 
L 71.303453 240.10818 
L 71.481016 249.754292 
L 71.607847 269.370173 
L 71.657672 289 
M 71.810777 28.705432 
L 71.962974 185.130394 
L 72.191269 206.455752 
L 72.470297 213.558868 
L 72.800057 216.973574 
L 73.205916 219.013243 
L 73.662507 220.254458 
L 74.220563 221.135364 
L 74.880083 221.759721 
L 75.717167 222.239661 
L 76.858645 222.620787 
L 78.456714 222.902692 
L 80.739669 223.066141 
L 83.78361 223.054047 
L 86.903649 222.826858 
L 89.440267 222.429617 
L 91.34273 221.916502 
L 92.788602 221.305991 
L 93.930079 220.589704 
L 94.868628 219.73814 
L 95.654979 218.719981 
L 96.339866 217.455319 
L 96.948654 215.830785 
L 97.481344 213.737053 
L 97.963301 210.860614 
L 98.36916 207.065691 
L 98.724286 201.674972 
L 99.02868 193.746448 
L 99.307708 179.903628 
L 99.536004 154.827019 
L 99.688201 114.208934 
L 99.815032 12.642535 
L 99.822332 -1 
M 100.427133 289 
L 100.728214 264.500823 
L 101.08334 252.431749 
L 101.489199 245.49769 
L 101.971156 240.910222 
L 102.503846 237.880746 
L 103.087268 235.768746 
L 103.746788 234.190535 
L 104.482407 233.003184 
L 105.294125 232.107723 
L 106.232673 231.404825 
L 107.323419 230.870787 
L 108.617094 230.493304 
L 110.113698 230.29322 
L 111.787865 230.295279 
L 113.538131 230.520794 
L 115.186932 230.952501 
L 116.683537 231.568807 
L 118.002578 232.347697 
L 119.169421 233.29267 
L 120.209435 234.422361 
L 121.147983 235.776312 
L 122.010433 237.428567 
L 122.796784 239.440125 
L 123.507037 241.882072 
L 124.166558 244.96965 
L 124.775346 248.933809 
L 125.333402 254.12016 
L 125.840725 261.064451 
L 126.297316 270.633165 
L 126.703175 284.30215 
L 126.804061 289 
M 128.537728 -1 
L 128.808567 88.75547 
L 129.138327 132.394524 
L 129.544186 157.990788 
L 130.000777 173.415541 
L 130.508101 183.537108 
L 131.066157 190.568651 
L 131.700311 195.826554 
L 132.385198 199.678101 
L 133.120817 202.567389 
L 133.907168 204.766916 
L 134.718886 206.407762 
L 135.581335 207.67263 
L 136.494518 208.629255 
L 137.458432 209.322726 
L 138.473079 209.78081 
L 139.538458 210.016658 
L 140.629204 210.031653 
L 141.745315 209.824974 
L 142.861427 209.391311 
L 143.952172 208.72907 
L 145.017552 207.818665 
L 146.032199 206.656586 
L 146.996113 205.214805 
L 147.934662 203.396849 
L 148.822478 201.170349 
L 149.659561 198.44617 
L 150.445913 195.10343 
L 151.181532 190.97716 
L 151.866418 185.839451 
L 152.500573 179.370142 
L 153.083995 171.110233 
L 153.616684 160.385847 
L 154.098642 146.180459 
L 154.529867 126.913452 
L 154.910359 100.044549 
L 155.240119 61.350226 
L 155.535082 -1 
M 159.259845 289 
L 159.882129 278.623067 
L 160.567016 270.800415 
L 161.302635 264.88129 
L 162.088986 260.316748 
L 162.900704 256.845911 
L 163.763154 254.092361 
L 164.65097 251.965361 
L 165.564152 250.324143 
L 166.5027 249.075639 
L 167.466615 248.158687 
L 168.430529 247.547494 
L 169.369078 247.207689 
L 170.307626 247.098885 
L 171.246175 247.21375 
L 172.184723 247.557191 
L 173.123271 248.147016 
L 174.036454 248.988893 
L 174.949636 250.14463 
L 175.837452 251.640768 
L 176.699902 253.546742 
L 177.536986 255.965345 
L 178.323337 258.93965 
L 179.084322 262.739443 
L 179.794575 267.48631 
L 180.454095 273.470429 
L 181.062884 281.110439 
L 181.522402 289 
M 185.279444 -1 
L 185.628795 69.868647 
L 186.034653 111.620083 
L 186.516611 139.331525 
L 187.0493 157.730443 
L 187.632722 170.66564 
L 188.266877 180.146569 
L 188.97713 187.542572 
L 189.738115 193.208809 
L 190.549832 197.651387 
L 191.437648 201.290657 
L 192.376197 204.217904 
L 193.390844 206.660292 
L 194.481589 208.705699 
L 195.648433 210.42506 
L 196.916742 211.901763 
L 198.311881 213.186471 
L 199.859218 214.310507 
L 201.609484 215.306427 
L 203.613411 216.188252 
L 205.947099 216.966989 
L 208.686646 217.640284 
L 211.933516 218.202362 
L 215.789174 218.637943 
L 220.355086 218.924376 
L 225.631249 219.028806 
L 231.465469 218.920362 
L 237.527985 218.585271 
L 243.412937 218.039915 
L 248.917396 217.310123 
L 253.965265 216.420157 
L 258.556542 215.38903 
L 262.767327 214.217982 
L 266.622985 212.917041 
L 270.174249 211.486719 
L 273.471852 209.921467 
L 276.566525 208.207449 
L 279.483635 206.337221 
L 282.248548 204.299116 
L 284.88663 202.075746 
L 287.397881 199.668096 
L 289.833033 197.022454 
L 292.192087 194.125944 
L 294.475043 190.966842 
L 296.707266 187.493192 
L 298.888757 183.681752 
L 301.019516 179.508864 
L 303.124908 174.891906 
L 305.204934 169.786418 
L 307.259594 164.143996 
L 309.288888 157.91203 
L 311.292816 151.033435 
L 311.318182 150.941369 
L 311.318182 150.941369 
" clip-path="url(#p059dc8944c)" style="fill: none; stroke: #008000; stroke-width: 1.5; stroke-linecap: square"/>
   </g>
   <g id="patch_3">
    <path d="M 45 256.32 
L 45 34.56 
" style="fill: none; stroke: #000000; stroke-width: 0.8; stroke-linejoin: miter; stroke-linecap: square"/>
   </g>
   <g id="patch_4">
    <path d="M 324 256.32 
L 324 34.56 
" style="fill: none; stroke: #000000; stroke-width: 0.8; stroke-linejoin: miter; stroke-linecap: square"/>
   </g>
   <g id="patch_5">
    <path d="M 45 256.32 
L 324 256.32 
" style="fill: none; stroke: #000000; stroke-width: 0.8; stroke-linejoin: miter; stroke-linecap: square"/>
   </g>
   <g id="patch_6">
    <path d="M 45 34.56 
L 324 34.56 
" style="fill: none; stroke: #000000; stroke-width: 0.8; stroke-linejoin: miter; stroke-linecap: square"/>
   </g>
  </g>
 </g>
 <defs>
  <clipPath id="p059dc8944c">
   <rect x="45" y="34.56" width="279" height="221.76"/>
  </clipPath>
 </defs>
</svg>
