<?xml version="1.0" encoding="utf-8" standalone="no"?>
<!DOCTYPE svg PUBLIC "-//W3C//DTD SVG 1.1//EN"
  "http://www.w3.org/Graphics/SVG/1.1/DTD/svg11.dtd">
<svg xmlns:xlink="http://www.w3.org/1999/xlink" width="360pt" height="288pt" viewBox="0 0 360 288" xmlns="http://www.w3.org/2000/svg" version="1.1">
 <metadata>
  <rdf:RDF xmlns:dc="http://purl.org/dc/elements/1.1/" xmlns:cc="http://creativecommons.org/ns#" xmlns:rdf="http://www.w3.org/1999/02/22-rdf-syntax-ns#">
   <cc:Work>
    <dc:type rdf:resource="http://purl.org/dc/dcmitype/StillImage"/>
    <dc:date>1980-01-01T00:00:00+00:00</dc:date>
    <dc:format>image/svg+xml</dc:format>
    <dc:creator>
     <cc:Agent>
      <dc:title>Matplotlib v3.10.5, https://matplotlib.org/</dc:title>
     </cc:Agent>
    </dc:creator>
   </cc:Work>
  </rdf:RDF>
 </metadata>
 <defs>
  <style type="text/css">*{stroke-linejoin: round; stroke-linecap: butt}</style>
 </defs>
 <g id="figure_1">
  <g id="patch_1">
   <path d="M 0 288 
L 360 288 
L 360 0 
L 0 0 
z
" style="fill: #ffffff"/>
  </g>
  <g id="axes_1">
   <g id="patch_2">
    <path d="M 45 256.32 
L 324 256.32 
L 324 34.56 
L 45 34.56 
z
" style="fill: #ffffff"/>
   </g>
   <g id="PathCollection_1">
    <defs>
     <path id="md3873dd414" d="M 0 3 
C 0.795609 3 1.55874 2.683901 2.12132 2.12132 
C 2.683901 1.55874 3 0.795609 3 0 
C 3 -0.795609 2.683901 -1.55874 2.12132 -2.12132 
C 1.55874 -2.683901 0.795609 -3 0 -3 
C -0.795609 -3 -1.55874 -2.683901 -2.12132 -2.12132 
C -2.683901 -1.55874 -3 -0.795609 -3 0 
C -3 0.795609 -2.683901 1.55874 -2.12132 2.12132 
C -1.55874 2.683901 -0.795609 3 0 3 
z
" style="stroke: #0000ff"/>
    </defs>
    <g clip-path="url(#p404d5cf931)">
     <use xlink:href="#md3873dd414" x="212.681818" y="218.304" style="fill: #0000ff; stroke: #0000ff"/>
     <use xlink:href="#md3873dd414" x="240.863636" y="211.968" style="fill: #0000ff; stroke: #0000ff"/>
     <use xlink:href="#md3873dd414" x="269.045455" y="186.624" style="fill: #0000ff; stroke: #0000ff"/>
     <use xlink:href="#md3873dd414" x="297.227273" y="72.576" style="fill: #0000ff; stroke: #0000ff"/>
    </g>
   </g>
   <g id="matplotlib.axis_1">
    <g id="xtick_1">
     <g id="line2d_1">
      <path d="M 71.772727 256.32 
L 71.772727 34.56 
" clip-path="url(#p404d5cf931)" style="fill: none; stroke: #b0b0b0; stroke-width: 0.8; stroke-linecap: square"/>
     </g>
     <g id="line2d_2">
      <defs>
       <path id="meb2b153ebc" d="M 0 0 
L 0 3.5 
" style="stroke: #000000; stroke-width: 0.8"/>
      </defs>
      <g>
       <use xlink:href="#meb2b153ebc" x="71.772727" y="256.32" style="stroke: #000000; stroke-width: 0.8"/>
      </g>
     </g>
     <g id="text_1">
      <!-- −4 -->
      <g transform="translate(64.401634 270.918437) scale(0.1 -0.1)">
       <defs>
        <path id="DejaVuSans-2212" d="M 678 2272 
L 4684 2272 
L 4684 1741 
L 678 1741 
L 678 2272 
z
" transform="scale(0.015625)"/>
        <path id="DejaVuSans-34" d="M 2419 4116 
L 825 1625 
L 2419 1625 
L 2419 4116 
z
M 2253 4666 
L 3047 4666 
L 3047 1625 
L 3713 1625 
L 3713 1100 
L 3047 1100 
L 3047 0 
L 2419 0 
L 2419 1100 
L 313 1100 
L 313 1709 
L 2253 4666 
z
" transform="scale(0.015625)"/>
       </defs>
       <use xlink:href="#DejaVuSans-2212"/>
       <use xlink:href="#DejaVuSans-34" transform="translate(83.789062 0)"/>
      </g>
     </g>
    </g>
    <g id="xtick_2">
     <g id="line2d_3">
      <path d="M 128.136364 256.32 
L 128.136364 34.56 
" clip-path="url(#p404d5cf931)" style="fill: none; stroke: #b0b0b0; stroke-width: 0.8; stroke-linecap: square"/>
     </g>
     <g id="line2d_4">
      <g>
       <use xlink:href="#meb2b153ebc" x="128.136364" y="256.32" style="stroke: #000000; stroke-width: 0.8"/>
      </g>
     </g>
     <g id="text_2">
      <!-- −2 -->
      <g transform="translate(120.76527 270.918437) scale(0.1 -0.1)">
       <defs>
        <path id="DejaVuSans-32" d="M 1228 531 
L 3431 531 
L 3431 0 
L 469 0 
L 469 531 
Q 828 903 1448 1529 
Q 2069 2156 2228 2338 
Q 2531 2678 2651 2914 
Q 2772 3150 2772 3378 
Q 2772 3750 2511 3984 
Q 2250 4219 1831 4219 
Q 1534 4219 1204 4116 
Q 875 4013 500 3803 
L 500 4441 
Q 881 4594 1212 4672 
Q 1544 4750 1819 4750 
Q 2544 4750 2975 4387 
Q 3406 4025 3406 3419 
Q 3406 3131 3298 2873 
Q 3191 2616 2906 2266 
Q 2828 2175 2409 1742 
Q 1991 1309 1228 531 
z
" transform="scale(0.015625)"/>
       </defs>
       <use xlink:href="#DejaVuSans-2212"/>
       <use xlink:href="#DejaVuSans-32" transform="translate(83.789062 0)"/>
      </g>
     </g>
    </g>
    <g id="xtick_3">
     <g id="line2d_5">
      <path d="M 184.5 256.32 
L 184.5 34.56 
" clip-path="url(#p404d5cf931)" style="fill: none; stroke: #b0b0b0; stroke-width: 0.8; stroke-linecap: square"/>
     </g>
     <g id="line2d_6">
      <g>
       <use xlink:href="#meb2b153ebc" x="184.5" y="256.32" style="stroke: #000000; stroke-width: 0.8"/>
      </g>
     </g>
     <g id="text_3">
      <!-- 0 -->
      <g transform="translate(181.31875 270.918437) scale(0.1 -0.1)">
       <defs>
        <path id="DejaVuSans-30" d="M 2034 4250 
Q 1547 4250 1301 3770 
Q 1056 3291 1056 2328 
Q 1056 1369 1301 889 
Q 1547 409 2034 409 
Q 2525 409 2770 889 
Q 3016 1369 3016 2328 
Q 3016 3291 2770 3770 
Q 2525 4250 2034 4250 
z
M 2034 4750 
Q 2819 4750 3233 4129 
Q 3647 3509 3647 2328 
Q 3647 1150 3233 529 
Q 2819 -91 2034 -91 
Q 1250 -91 836 529 
Q 422 1150 422 2328 
Q 422 3509 836 4129 
Q 1250 4750 2034 4750 
z
" transform="scale(0.015625)"/>
       </defs>
       <use xlink:href="#DejaVuSans-30"/>
      </g>
     </g>
    </g>
    <g id="xtick_4">
     <g id="line2d_7">
      <path d="M 240.863636 256.32 
L 240.863636 34.56 
" clip-path="url(#p404d5cf931)" style="fill: none; stroke: #b0b0b0; stroke-width: 0.8; stroke-linecap: square"/>
     </g>
     <g id="line2d_8">
      <g>
       <use xlink:href="#meb2b153ebc" x="240.863636" y="256.32" style="stroke: #000000; stroke-width: 0.8"/>
      </g>
     </g>
     <g id="text_4">
      <!-- 2 -->
      <g transform="translate(237.682386 270.918437) scale(0.1 -0.1)">
       <use xlink:href="#DejaVuSans-32"/>
      </g>
     </g>
    </g>
    <g id="xtick_5">
     <g id="line2d_9">
      <path d="M 297.227273 256.32 
L 297.227273 34.56 
" clip-path="url(#p404d5cf931)" style="fill: none; stroke: #b0b0b0; stroke-width: 0.8; stroke-linecap: square"/>
     </g>
     <g id="line2d_10">
      <g>
       <use xlink:href="#meb2b153ebc" x="297.227273" y="256.32" style="stroke: #000000; stroke-width: 0.8"/>
      </g>
     </g>
     <g id="text_5">
      <!-- 4 -->
      <g transform="translate(294.046023 270.918437) scale(0.1 -0.1)">
       <use xlink:href="#DejaVuSans-34"/>
      </g>
     </g>
    </g>
   </g>
   <g id="matplotlib.axis_2">
    <g id="ytick_1">
     <g id="line2d_11">
      <path d="M 45 256.32 
L 324 256.32 
" clip-path="url(#p404d5cf931)" style="fill: none; stroke: #b0b0b0; stroke-width: 0.8; stroke-linecap: square"/>
     </g>
     <g id="line2d_12">
      <defs>
       <path id="m0c1e622550" d="M 0 0 
L -3.5 0 
" style="stroke: #000000; stroke-width: 0.8"/>
      </defs>
      <g>
       <use xlink:href="#m0c1e622550" x="45" y="256.32" style="stroke: #000000; stroke-width: 0.8"/>
      </g>
     </g>
     <g id="text_6">
      <!-- −5 -->
      <g transform="translate(23.257812 260.119219) scale(0.1 -0.1)">
       <defs>
        <path id="DejaVuSans-35" d="M 691 4666 
L 3169 4666 
L 3169 4134 
L 1269 4134 
L 1269 2991 
Q 1406 3038 1543 3061 
Q 1681 3084 1819 3084 
Q 2600 3084 3056 2656 
Q 3513 2228 3513 1497 
Q 3513 744 3044 326 
Q 2575 -91 1722 -91 
Q 1428 -91 1123 -41 
Q 819 9 494 109 
L 494 744 
Q 775 591 1075 516 
Q 1375 441 1709 441 
Q 2250 441 2565 725 
Q 2881 1009 2881 1497 
Q 2881 1984 2565 2268 
Q 2250 2553 1709 2553 
Q 1456 2553 1204 2497 
Q 953 2441 691 2322 
L 691 4666 
z
" transform="scale(0.015625)"/>
       </defs>
       <use xlink:href="#DejaVuSans-2212"/>
       <use xlink:href="#DejaVuSans-35" transform="translate(83.789062 0)"/>
      </g>
     </g>
    </g>
    <g id="ytick_2">
     <g id="line2d_13">
      <path d="M 45 224.64 
L 324 224.64 
" clip-path="url(#p404d5cf931)" style="fill: none; stroke: #b0b0b0; stroke-width: 0.8; stroke-linecap: square"/>
     </g>
     <g id="line2d_14">
      <g>
       <use xlink:href="#m0c1e622550" x="45" y="224.64" style="stroke: #000000; stroke-width: 0.8"/>
      </g>
     </g>
     <g id="text_7">
      <!-- 0 -->
      <g transform="translate(31.6375 228.439219) scale(0.1 -0.1)">
       <use xlink:href="#DejaVuSans-30"/>
      </g>
     </g>
    </g>
    <g id="ytick_3">
     <g id="line2d_15">
      <path d="M 45 192.96 
L 324 192.96 
" clip-path="url(#p404d5cf931)" style="fill: none; stroke: #b0b0b0; stroke-width: 0.8; stroke-linecap: square"/>
     </g>
     <g id="line2d_16">
      <g>
       <use xlink:href="#m0c1e622550" x="45" y="192.96" style="stroke: #000000; stroke-width: 0.8"/>
      </g>
     </g>
     <g id="text_8">
      <!-- 5 -->
      <g transform="translate(31.6375 196.759219) scale(0.1 -0.1)">
       <use xlink:href="#DejaVuSans-35"/>
      </g>
     </g>
    </g>
    <g id="ytick_4">
     <g id="line2d_17">
      <path d="M 45 161.28 
L 324 161.28 
" clip-path="url(#p404d5cf931)" style="fill: none; stroke: #b0b0b0; stroke-width: 0.8; stroke-linecap: square"/>
     </g>
     <g id="line2d_18">
      <g>
       <use xlink:href="#m0c1e622550" x="45" y="161.28" style="stroke: #000000; stroke-width: 0.8"/>
      </g>
     </g>
     <g id="text_9">
      <!-- 10 -->
      <g transform="translate(25.275 165.079219) scale(0.1 -0.1)">
       <defs>
        <path id="DejaVuSans-31" d="M 794 531 
L 1825 531 
L 1825 4091 
L 703 3866 
L 703 4441 
L 1819 4666 
L 2450 4666 
L 2450 531 
L 3481 531 
L 3481 0 
L 794 0 
L 794 531 
z
" transform="scale(0.015625)"/>
       </defs>
       <use xlink:href="#DejaVuSans-31"/>
       <use xlink:href="#DejaVuSans-30" transform="translate(63.623047 0)"/>
      </g>
     </g>
    </g>
    <g id="ytick_5">
     <g id="line2d_19">
      <path d="M 45 129.6 
L 324 129.6 
" clip-path="url(#p404d5cf931)" style="fill: none; stroke: #b0b0b0; stroke-width: 0.8; stroke-linecap: square"/>
     </g>
     <g id="line2d_20">
      <g>
       <use xlink:href="#m0c1e622550" x="45" y="129.6" style="stroke: #000000; stroke-width: 0.8"/>
      </g>
     </g>
     <g id="text_10">
      <!-- 15 -->
      <g transform="translate(25.275 133.399219) scale(0.1 -0.1)">
       <use xlink:href="#DejaVuSans-31"/>
       <use xlink:href="#DejaVuSans-35" transform="translate(63.623047 0)"/>
      </g>
     </g>
    </g>
    <g id="ytick_6">
     <g id="line2d_21">
      <path d="M 45 97.92 
L 324 97.92 
" clip-path="url(#p404d5cf931)" style="fill: none; stroke: #b0b0b0; stroke-width: 0.8; stroke-linecap: square"/>
     </g>
     <g id="line2d_22">
      <g>
       <use xlink:href="#m0c1e622550" x="45" y="97.92" style="stroke: #000000; stroke-width: 0.8"/>
      </g>
     </g>
     <g id="text_11">
      <!-- 20 -->
      <g transform="translate(25.275 101.719219) scale(0.1 -0.1)">
       <use xlink:href="#DejaVuSans-32"/>
       <use xlink:href="#DejaVuSans-30" transform="translate(63.623047 0)"/>
      </g>
     </g>
    </g>
    <g id="ytick_7">
     <g id="line2d_23">
      <path d="M 45 66.24 
L 324 66.24 
" clip-path="url(#p404d5cf931)" style="fill: none; stroke: #b0b0b0; stroke-width: 0.8; stroke-linecap: square"/>
     </g>
     <g id="line2d_24">
      <g>
       <use xlink:href="#m0c1e622550" x="45" y="66.24" style="stroke: #000000; stroke-width: 0.8"/>
      </g>
     </g>
     <g id="text_12">
      <!-- 25 -->
      <g transform="translate(25.275 70.039219) scale(0.1 -0.1)">
       <use xlink:href="#DejaVuSans-32"/>
       <use xlink:href="#DejaVuSans-35" transform="translate(63.623047 0)"/>
      </g>
     </g>
    </g>
    <g id="ytick_8">
     <g id="line2d_25">
      <path d="M 45 34.56 
L 324 34.56 
" clip-path="url(#p404d5cf931)" style="fill: none; stroke: #b0b0b0; stroke-width: 0.8; stroke-linecap: square"/>
     </g>
     <g id="line2d_26">
      <g>
       <use xlink:href="#m0c1e622550" x="45" y="34.56" style="stroke: #000000; stroke-width: 0.8"/>
      </g>
     </g>
     <g id="text_13">
      <!-- 30 -->
      <g transform="translate(25.275 38.359219) scale(0.1 -0.1)">
       <defs>
        <path id="DejaVuSans-33" d="M 2597 2516 
Q 3050 2419 3304 2112 
Q 3559 1806 3559 1356 
Q 3559 666 3084 287 
Q 2609 -91 1734 -91 
Q 1441 -91 1130 -33 
Q 819 25 488 141 
L 488 750 
Q 750 597 1062 519 
Q 1375 441 1716 441 
Q 2309 441 2620 675 
Q 2931 909 2931 1356 
Q 2931 1769 2642 2001 
Q 2353 2234 1838 2234 
L 1294 2234 
L 1294 2753 
L 1863 2753 
Q 2328 2753 2575 2939 
Q 2822 3125 2822 3475 
Q 2822 3834 2567 4026 
Q 2313 4219 1838 4219 
Q 1578 4219 1281 4162 
Q 984 4106 628 3988 
L 628 4550 
Q 988 4650 1302 4700 
Q 1616 4750 1894 4750 
Q 2613 4750 3031 4423 
Q 3450 4097 3450 3541 
Q 3450 3153 3228 2886 
Q 3006 2619 2597 2516 
z
" transform="scale(0.015625)"/>
       </defs>
       <use xlink:href="#DejaVuSans-33"/>
       <use xlink:href="#DejaVuSans-30" transform="translate(63.623047 0)"/>
      </g>
     </g>
    </g>
   </g>
   <g id="line2d_27">
    <path d="M 57.681818 222.928721 
L 60.446731 222.5844 
L 62.552123 222.108679 
L 64.150192 221.527102 
L 65.393135 220.842471 
L 66.382416 220.048879 
L 67.219499 219.088618 
L 67.929752 217.928645 
L 68.563906 216.442451 
L 69.121962 214.530068 
L 69.603919 212.070838 
L 70.035144 208.698154 
L 70.415637 203.925707 
L 70.745397 196.912884 
L 71.024425 186.133746 
L 71.252721 168.692526 
L 71.430284 139.0325 
L 71.582481 69.521427 
L 71.640514 -1 
M 72.245315 289 
L 72.546396 264.500823 
L 72.901522 252.431749 
L 73.307381 245.49769 
L 73.789338 240.910222 
L 74.322028 237.880746 
L 74.90545 235.768746 
L 75.56497 234.190535 
L 76.300589 233.003184 
L 77.112307 232.107723 
L 78.050855 231.404825 
L 79.141601 230.870787 
L 80.435275 230.493304 
L 81.93188 230.29322 
L 83.606047 230.295279 
L 85.356313 230.520794 
L 87.005114 230.952501 
L 88.501718 231.568807 
L 89.820759 232.347697 
L 90.987603 233.29267 
L 92.027616 234.422361 
L 92.966165 235.776312 
L 93.828615 237.428567 
L 94.614966 239.440125 
L 95.325219 241.882072 
L 95.984739 244.96965 
L 96.593528 248.933809 
L 97.151583 254.12016 
L 97.658907 261.064451 
L 98.115498 270.633165 
L 98.521357 284.30215 
L 98.622243 289 
M 100.35591 -1 
L 100.626749 88.75547 
L 100.956509 132.394524 
L 101.362368 157.990788 
L 101.818959 173.415541 
L 102.326283 183.537108 
L 102.884338 190.568651 
L 103.518493 195.826554 
L 104.203379 199.678101 
L 104.938998 202.567389 
L 105.72535 204.766916 
L 106.537067 206.407762 
L 107.399517 207.67263 
L 108.312699 208.629255 
L 109.276614 209.322726 
L 110.291261 209.78081 
L 111.35664 210.016658 
L 112.447386 210.031653 
L 113.563497 209.824974 
L 114.679609 209.391311 
L 115.770354 208.72907 
L 116.835734 207.818665 
L 117.85038 206.656586 
L 118.814295 205.214805 
L 119.752843 203.396849 
L 120.64066 201.170349 
L 121.477743 198.44617 
L 122.264095 195.10343 
L 122.999714 190.97716 
L 123.6846 185.839451 
L 124.318755 179.370142 
L 124.902177 171.110233 
L 125.434866 160.385847 
L 125.916824 146.180459 
L 126.348048 126.913452 
L 126.728541 100.044549 
L 127.058301 61.350226 
L 127.353264 -1 
M 131.078027 289 
L 131.700311 278.623067 
L 132.385198 270.800415 
L 133.120817 264.88129 
L 133.907168 260.316748 
L 134.718886 256.845911 
L 135.581335 254.092361 
L 136.469151 251.965361 
L 137.382334 250.324143 
L 138.320882 249.075639 
L 139.284797 248.158687 
L 140.248711 247.547494 
L 141.18726 247.207689 
L 142.125808 247.098885 
L 143.064356 247.21375 
L 144.002905 247.557191 
L 144.941453 248.147016 
L 145.854635 248.988893 
L 146.767818 250.14463 
L 147.655634 251.640768 
L 148.518084 253.546742 
L 149.355167 255.965345 
L 150.141519 258.93965 
L 150.902504 262.739443 
L 151.612757 267.48631 
L 152.272277 273.470429 
L 152.881065 281.110439 
L 153.340584 289 
M 157.097626 -1 
L 157.446977 69.868647 
L 157.852835 111.620083 
L 158.334793 139.331525 
L 158.867482 157.730443 
L 159.450904 170.66564 
L 160.085059 180.146569 
L 160.795311 187.542572 
L 161.556297 193.208809 
L 162.368014 197.651387 
L 163.25583 201.290657 
L 164.194379 204.217904 
L 165.209025 206.660292 
L 166.299771 208.705699 
L 167.466615 210.42506 
L 168.734923 211.901763 
L 170.130063 213.186471 
L 171.6774 214.310507 
L 173.427665 215.306427 
L 175.431593 216.188252 
L 177.765281 216.966989 
L 180.504828 217.640284 
L 183.751698 218.202362 
L 187.607356 218.637943 
L 192.173267 218.924376 
L 197.449431 219.028806 
L 203.283651 218.920362 
L 209.346166 218.585271 
L 215.231119 218.039915 
L 220.735578 217.310123 
L 225.783447 216.420157 
L 230.374724 215.38903 
L 234.585509 214.217982 
L 238.441167 212.917041 
L 241.992431 211.486719 
L 245.290034 209.921467 
L 248.384707 208.207449 
L 251.301817 206.337221 
L 254.066729 204.299116 
L 256.704811 202.075746 
L 259.216063 199.668096 
L 261.651215 197.022454 
L 264.010269 194.125944 
L 266.293225 190.966842 
L 268.525448 187.493192 
L 270.706939 183.681752 
L 272.837697 179.508864 
L 274.94309 174.891906 
L 277.023116 169.786418 
L 279.077776 164.143996 
L 281.10707 157.91203 
L 283.110997 151.033435 
L 285.114925 143.343564 
L 287.093487 134.854344 
L 289.072048 125.361094 
L 291.025243 114.880073 
L 292.978439 103.156892 
L 294.906268 90.213783 
L 296.834097 75.73469 
L 298.761926 59.524597 
L 300.664389 41.615063 
L 302.566852 21.563571 
L 304.469315 -0.902948 
L 304.477076 -1 
L 304.477076 -1 
" clip-path="url(#p404d5cf931)" style="fill: none; stroke: #0000ff; stroke-width: 1.5; stroke-linecap: square"/>
   </g>
   <g id="line2d_28">
    <path d="M 57.681818 232.933866 
L 59.406718 232.280366 
L 61.131618 231.388028 
L 62.780419 230.284216 
L 64.302389 229.001345 
L 65.697529 227.534916 
L 66.940471 225.901157 
L 68.005851 224.134176 
L 68.919033 222.190561 
L 69.680018 220.055956 
L 70.314172 217.616592 
L 70.821496 214.779722 
L 71.227355 211.147753 
L 71.506382 206.530801 
L 71.683946 199.520604 
L 71.760044 187.169919 
L 71.768051 -1 
M 71.80257 -1 
L 71.912241 202.319771 
L 72.165903 208.811193 
L 72.546396 212.987169 
L 73.028353 215.90751 
L 73.611775 218.138971 
L 74.296661 219.915397 
L 75.083013 221.356378 
L 75.970829 222.530235 
L 76.96011 223.478146 
L 78.076221 224.239489 
L 79.319164 224.813462 
L 80.688937 225.195951 
L 82.185541 225.377955 
L 83.78361 225.346024 
L 85.457778 225.09075 
L 87.182677 224.602775 
L 88.907577 223.881771 
L 90.556378 222.952383 
L 92.103715 221.825996 
L 93.524221 220.514512 
L 94.792529 219.035707 
L 95.883275 217.42464 
L 96.821823 215.648876 
L 97.633541 213.63191 
L 98.293061 211.407532 
L 98.851117 208.716372 
L 99.282342 205.49554 
L 99.586736 201.615464 
L 99.789665 196.490944 
L 99.916496 187.174217 
L 99.941862 180.208161 
L 99.949664 -1 
M 99.984588 -1 
L 100.094059 195.369427 
L 100.347721 201.87992 
L 100.728214 206.084609 
L 101.210171 209.041507 
L 101.793593 211.317507 
L 102.503846 213.203225 
L 103.315563 214.730542 
L 104.228746 215.982614 
L 105.268759 217.029553 
L 106.410236 217.86602 
L 107.678545 218.522652 
L 109.073685 218.996302 
L 110.595655 219.278394 
L 112.21909 219.353691 
L 113.918624 219.210191 
L 115.643523 218.842072 
L 117.343057 218.25301 
L 118.966492 217.456128 
L 120.463096 216.477726 
L 121.83287 215.318005 
L 123.050446 213.995932 
L 124.115825 212.511148 
L 125.029007 210.862153 
L 125.815359 208.984448 
L 126.474879 206.831679 
L 127.007569 204.347568 
L 127.438794 201.265379 
L 127.768554 197.182471 
L 127.971484 192.080656 
L 128.098314 182.77816 
L 128.123681 175.814955 
L 128.13135 -1 
M 128.166535 -1 
L 128.275878 190.993349 
L 128.529539 197.532492 
L 128.910032 201.780401 
L 129.391989 204.792471 
L 130.000777 207.219302 
L 130.71103 209.163653 
L 131.548114 210.814784 
L 132.512028 212.220184 
L 133.602774 213.412098 
L 134.82035 214.41096 
L 136.164757 215.227813 
L 137.661362 215.874596 
L 139.284797 216.330034 
L 140.98433 216.576583 
L 142.734596 216.60838 
L 144.484862 216.419861 
L 146.184396 216.012661 
L 147.757098 215.408765 
L 149.177604 214.630109 
L 150.445913 213.687245 
L 151.562024 212.587306 
L 152.551305 211.300625 
L 153.413755 209.806559 
L 154.149374 208.077795 
L 154.758162 206.084887 
L 155.265486 203.667507 
L 155.671344 200.63908 
L 155.975738 196.65096 
L 156.178668 190.988583 
L 156.280133 182.769612 
L 156.305499 175.812104 
L 156.313168 -1 
M 156.348353 -1 
L 156.457696 191.024794 
L 156.711357 197.62151 
L 157.09185 201.956774 
L 157.599174 205.210858 
L 158.233328 207.828467 
L 158.994313 210.025467 
L 159.882129 211.922264 
L 160.922142 213.629062 
L 162.139719 215.200204 
L 163.560224 216.663329 
L 165.183659 218.012605 
L 167.060756 219.278561 
L 169.216881 220.457785 
L 171.652033 221.533213 
L 174.416946 222.509084 
L 177.536986 223.372069 
L 181.037517 224.10686 
L 184.943908 224.696324 
L 189.281524 225.121641 
L 194.050364 225.361719 
L 199.25043 225.398255 
L 204.932452 225.21241 
L 211.071066 224.786351 
L 217.691637 224.101511 
L 224.794166 223.141291 
L 232.404018 221.885886 
L 240.521193 220.31908 
L 249.145692 218.425832 
L 258.30288 216.185598 
L 267.992758 213.583442 
L 278.215326 210.605359 
L 288.970583 207.238159 
L 300.25853 203.469376 
L 311.318182 199.563291 
L 311.318182 199.563291 
" clip-path="url(#p404d5cf931)" style="fill: none; stroke: #ff0000; stroke-width: 1.5; stroke-linecap: square"/>
   </g>
   <g id="patch_3">
    <path d="M 45 256.32 
L 45 34.56 
" style="fill: none; stroke: #000000; stroke-width: 0.8; stroke-linejoin: miter; stroke-linecap: square"/>
   </g>
   <g id="patch_4">
    <path d="M 324 256.32 
L 324 34.56 
" style="fill: none; stroke: #000000; stroke-width: 0.8; stroke-linejoin: miter; stroke-linecap: square"/>
   </g>
   <g id="patch_5">
    <path d="M 45 256.32 
L 324 256.32 
" style="fill: none; stroke: #000000; stroke-width: 0.8; stroke-linejoin: miter; stroke-linecap: square"/>
   </g>
   <g id="patch_6">
    <path d="M 45 34.56 
L 324 34.56 
" style="fill: none; stroke: #000000; stroke-width: 0.8; stroke-linejoin: miter; stroke-linecap: square"/>
   </g>
   <g id="legend_1">
    <g id="patch_7">
     <path d="M 147 87.01625 
L 222 87.01625 
Q 224 87.01625 224 85.01625 
L 224 41.56 
Q 224 39.56 222 39.56 
L 147 39.56 
Q 145 39.56 145 41.56 
L 145 85.01625 
Q 145 87.01625 147 87.01625 
z
" style="fill: #ffffff; opacity: 0.8; stroke: #cccccc; stroke-linejoin: miter"/>
    </g>
    <g id="line2d_29">
     <path d="M 149 47.658438 
L 159 47.658438 
L 169 47.658438 
" style="fill: none; stroke: #0000ff; stroke-width: 1.5; stroke-linecap: square"/>
    </g>
    <g id="text_14">
     <!-- $\Gamma(x)$ -->
     <g transform="translate(177 51.158438) scale(0.1 -0.1)">
      <defs>
       <path id="DejaVuSans-393" d="M 628 0 
L 628 4666 
L 3531 4666 
L 3531 4134 
L 1259 4134 
L 1259 0 
L 628 0 
z
" transform="scale(0.015625)"/>
       <path id="DejaVuSans-28" d="M 1984 4856 
Q 1566 4138 1362 3434 
Q 1159 2731 1159 2009 
Q 1159 1288 1364 580 
Q 1569 -128 1984 -844 
L 1484 -844 
Q 1016 -109 783 600 
Q 550 1309 550 2009 
Q 550 2706 781 3412 
Q 1013 4119 1484 4856 
L 1984 4856 
z
" transform="scale(0.015625)"/>
       <path id="DejaVuSans-Oblique-78" d="M 3841 3500 
L 2234 1784 
L 3219 0 
L 2559 0 
L 1819 1388 
L 531 0 
L -166 0 
L 1556 1844 
L 641 3500 
L 1300 3500 
L 1972 2234 
L 3144 3500 
L 3841 3500 
z
" transform="scale(0.015625)"/>
       <path id="DejaVuSans-29" d="M 513 4856 
L 1013 4856 
Q 1481 4119 1714 3412 
Q 1947 2706 1947 2009 
Q 1947 1309 1714 600 
Q 1481 -109 1013 -844 
L 513 -844 
Q 928 -128 1133 580 
Q 1338 1288 1338 2009 
Q 1338 2731 1133 3434 
Q 928 4138 513 4856 
z
" transform="scale(0.015625)"/>
      </defs>
      <use xlink:href="#DejaVuSans-393" transform="translate(0 0.125)"/>
      <use xlink:href="#DejaVuSans-28" transform="translate(55.712891 0.125)"/>
      <use xlink:href="#DejaVuSans-Oblique-78" transform="translate(94.726562 0.125)"/>
      <use xlink:href="#DejaVuSans-29" transform="translate(153.90625 0.125)"/>
     </g>
    </g>
    <g id="PathCollection_2">
     <g>
      <use xlink:href="#md3873dd414" x="159" y="63.211563" style="fill: #0000ff; stroke: #0000ff"/>
     </g>
    </g>
    <g id="text_15">
     <!-- $x!$ -->
     <g transform="translate(177 65.836563) scale(0.1 -0.1)">
      <defs>
       <path id="DejaVuSans-21" d="M 966 794 
L 1600 794 
L 1600 0 
L 966 0 
L 966 794 
z
M 966 4666 
L 1600 4666 
L 1600 2619 
L 1538 1503 
L 1031 1503 
L 966 2619 
L 966 4666 
z
" transform="scale(0.015625)"/>
      </defs>
      <use xlink:href="#DejaVuSans-Oblique-78" transform="translate(0 0.09375)"/>
      <use xlink:href="#DejaVuSans-21" transform="translate(59.179688 0.09375)"/>
     </g>
    </g>
    <g id="line2d_30">
     <path d="M 149 77.11625 
L 159 77.11625 
L 169 77.11625 
" style="fill: none; stroke: #ff0000; stroke-width: 1.5; stroke-linecap: square"/>
    </g>
    <g id="text_16">
     <!-- $ln(|\Gamma(x)|)$ -->
     <g transform="translate(177 80.61625) scale(0.1 -0.1)">
      <defs>
       <path id="DejaVuSans-Oblique-6c" d="M 1172 4863 
L 1747 4863 
L 800 0 
L 225 0 
L 1172 4863 
z
" transform="scale(0.015625)"/>
       <path id="DejaVuSans-Oblique-6e" d="M 3566 2113 
L 3156 0 
L 2578 0 
L 2988 2091 
Q 3016 2238 3031 2350 
Q 3047 2463 3047 2528 
Q 3047 2791 2881 2937 
Q 2716 3084 2419 3084 
Q 1956 3084 1622 2776 
Q 1288 2469 1184 1941 
L 800 0 
L 225 0 
L 903 3500 
L 1478 3500 
L 1363 2950 
Q 1603 3253 1940 3418 
Q 2278 3584 2650 3584 
Q 3113 3584 3367 3334 
Q 3622 3084 3622 2631 
Q 3622 2519 3608 2391 
Q 3594 2263 3566 2113 
z
" transform="scale(0.015625)"/>
       <path id="DejaVuSans-7c" d="M 1344 4891 
L 1344 -1509 
L 813 -1509 
L 813 4891 
L 1344 4891 
z
" transform="scale(0.015625)"/>
      </defs>
      <use xlink:href="#DejaVuSans-Oblique-6c" transform="translate(0 0.578125)"/>
      <use xlink:href="#DejaVuSans-Oblique-6e" transform="translate(27.783203 0.578125)"/>
      <use xlink:href="#DejaVuSans-28" transform="translate(91.162109 0.578125)"/>
      <use xlink:href="#DejaVuSans-7c" transform="translate(130.175781 0.578125)"/>
      <use xlink:href="#DejaVuSans-393" transform="translate(163.867188 0.578125)"/>
      <use xlink:href="#DejaVuSans-28" transform="translate(219.580078 0.578125)"/>
      <use xlink:href="#DejaVuSans-Oblique-78" transform="translate(258.59375 0.578125)"/>
      <use xlink:href="#DejaVuSans-29" transform="translate(317.773438 0.578125)"/>
      <use xlink:href="#DejaVuSans-7c" transform="translate(356.787109 0.578125)"/>
      <use xlink:href="#DejaVuSans-29" transform="translate(390.478516 0.578125)"/>
     </g>
    </g>
   </g>
  </g>
 </g>
 <defs>
  <clipPath id="p404d5cf931">
   <rect x="45" y="34.56" width="279" height="221.76"/>
  </clipPath>
 </defs>
</svg>
